<?xml version="1.0" standalone="no"?>
<!DOCTYPE svg PUBLIC "-//W3C//DTD SVG 20010904//EN"
 "http://www.w3.org/TR/2001/REC-SVG-20010904/DTD/svg10.dtd">
<svg version="1.0" xmlns="http://www.w3.org/2000/svg"
 width="328.000000pt" height="224.000000pt" viewBox="0 0 328.000000 224.000000"
 preserveAspectRatio="xMidYMid meet">
<metadata>
Created by potrace 1.15, written by Peter Selinger 2001-2017
</metadata>
<g transform="translate(0.000000,224.000000) scale(0.100000,-0.100000)"
fill="#000000" stroke="none">
<path d="M2094 2026 c-4 -9 -4 -25 -1 -36 3 -13 -1 -24 -13 -30 -28 -15 -37
-12 -43 11 -4 14 -12 19 -24 17 -14 -3 -18 -12 -16 -38 2 -41 -15 -55 -39 -33
-9 8 -24 13 -33 10 -17 -7 -20 -33 -5 -42 16 -10 12 -22 -20 -59 l-31 -35 -72
35 c-207 98 -508 119 -762 54 -108 -28 -266 -107 -343 -172 -127 -108 -185
-217 -186 -353 -1 -44 3 -94 7 -112 8 -31 7 -32 -52 -62 -130 -64 -223 -151
-269 -249 -22 -47 -27 -71 -27 -137 0 -111 37 -188 135 -278 254 -235 775
-275 1104 -87 l68 40 55 -50 c268 -245 752 -251 1042 -14 261 214 294 554 77
791 -27 30 -47 55 -45 56 179 118 243 315 160 493 -31 66 -31 67 -11 81 44 31
11 67 -34 38 -24 -16 -26 -16 -32 -1 -3 9 -1 23 6 31 15 18 6 45 -14 45 -8 0
-21 -9 -29 -21 -19 -26 -32 -8 -17 22 6 11 9 27 6 35 -8 22 -35 17 -47 -10
l-11 -24 -57 23 c-109 45 -227 55 -348 29 -28 -5 -32 -3 -35 17 -4 28 -35 38
-44 15z m322 -81 c191 -45 317 -172 331 -334 9 -97 -40 -209 -119 -276 -58
-49 -69 -50 -121 -16 -66 45 -150 80 -250 105 l-88 22 -24 58 c-31 75 -97 159
-172 217 l-60 46 36 40 c112 124 296 179 467 138z m-906 -89 c52 -8 122 -23
155 -34 92 -29 215 -86 215 -100 0 -6 4 -11 9 -10 17 5 113 -76 151 -126 41
-54 80 -135 80 -166 0 -25 11 -31 74 -35 92 -7 316 -101 301 -126 -4 -5 -1 -9
4 -9 6 0 11 -8 11 -19 0 -14 6 -17 23 -14 18 4 35 -7 74 -51 219 -239 160
-574 -134 -768 -270 -178 -687 -148 -920 66 -24 21 -40 42 -37 47 3 5 -15 9
-40 9 -25 0 -46 -4 -46 -9 0 -26 -177 -102 -297 -128 -99 -22 -329 -24 -428
-4 -151 30 -279 90 -370 173 -86 79 -120 148 -120 243 0 92 34 163 114 237 62
58 193 133 217 124 8 -3 14 -1 14 4 0 6 7 10 16 10 18 0 16 18 -10 85 -51 134
24 316 179 432 196 148 484 211 765 169z"/>
<path d="M2085 1755 c-14 -13 -25 -31 -25 -40 0 -29 46 -65 83 -65 43 0 87 33
87 65 0 59 -100 86 -145 40z"/>
<path d="M2453 1770 c-24 -10 -43 -39 -43 -65 0 -30 46 -65 85 -65 40 0 85 36
85 68 0 49 -74 85 -127 62z"/>
</g>
</svg>
